<svg width="32" height="32" viewBox="0 0 32 32" xmlns="http://www.w3.org/2000/svg">
  <!-- CSS3-style shield badge, tinted to Glacier blue -->
  <path fill="#2965F1" d="M6 2h20l-1.82 20.5L16 25l-8.18-2.5z"/>
  <path fill="#264DE4" d="M16 4v19.2l6.6-2.02L24.1 4z"/>
  <path fill="#EBEBEB" d="M16 12.5h-3.4l-.24-2.6H16V7.4H9.6l.06.72.62 6.98H16zM16 18.6l-2.86-.78-.18-2.06H10.4l.36 4.06L16 21.3z"/>
  <path fill="#FFF" d="M15.99 12.5v2.6h3.16l-.3 3.32-2.86.78v2.7l5.24-1.44.04-.48.6-6.74.07-.74zM15.99 7.4V10h6.16l.05-.58.12-1.3.06-.72z"/>
</svg>
